<svg xmlns="http://www.w3.org/2000/svg" xml:space="preserve" viewBox="0 0 512 512" id="CostReduction">
  <linearGradient id="a" x1="87.54" x2="439.712" y1="500.366" y2="148.195" gradientUnits="userSpaceOnUse">
    <stop offset="0" stop-color="#fcfcfc" class="stopColorfcc60e svgShape"></stop>
    <stop offset="1" stop-color="#ffffff" class="stopColore92e29 svgShape"></stop>
  </linearGradient>
  <path fill="url(#a)" d="M282.166 189.103c37.516 22.403 78.544 35.529 119.18 38.194l-1.442 21.44a8 8 0 0 0 12.693 7.002l70.338-51.254a8.003 8.003 0 0 0 .443-12.584l-63.303-53.332a8 8 0 0 0-13.137 5.581l-1.519 22.579c-43.061-2.876-98.687-19.934-135.473-41.901-39.492-23.583-68.857-53-89.773-89.931a8 8 0 0 0-14.725 5.87c14.566 58.673 57.108 112.739 116.718 148.336zm-20.422-50.536c41.092 24.538 104.56 43.263 150.914 44.522 4.25.1 7.911-3.176 8.199-7.46l.985-14.648 43.423 36.583-48.248 35.157.84-12.486a7.996 7.996 0 0 0-7.739-8.533c-40.606-1.238-82.016-13.803-119.75-36.337-34.646-20.689-63.125-47.909-83.008-78.584 15.676 15.595 33.733 29.454 54.384 41.786zM504 430.123h-20.001v-95.927a8 8 0 0 0-8-8H418.7a8 8 0 0 0-8 8v95.927h-33.097V276.602a8 8 0 0 0-8-8h-57.3a8 8 0 0 0-8 8v153.521h-33.097V216.462a8 8 0 0 0-8-8h-57.299a8 8 0 0 0-8 8v45.176c-6.255-7.471-13.121-15.315-20.643-23.591 7.354-4.438 12.283-12.505 12.283-21.702 0-12.167-8.623-22.354-20.078-24.779l15.27-15.27c10.062-10.063 10.062-26.437-.001-36.501-8.517-8.515-22.062-9.972-32.204-3.461-.4.258-.63.277-1.066.097-.44-.182-.588-.359-.689-.825-2.571-11.776-13.178-20.323-25.222-20.323-12.041.002-22.646 8.549-25.217 20.324-.102.465-.25.642-.687.823-.44.182-.671.161-1.07-.096-10.144-6.51-23.687-5.056-32.205 3.462-4.861 4.861-7.538 11.342-7.538 18.25s2.677 13.389 7.538 18.25l15.27 15.269c-11.455 2.425-20.079 12.612-20.079 24.779 0 9.198 4.929 17.265 12.283 21.703-27.304 30.04-45.945 54.375-58.239 75.959-20.354 35.738-20.767 75.236-1.134 108.365 21.577 36.408 63.125 58.787 108.849 58.786h4.461c21.026-.001 41.164-4.745 58.889-13.398H504a8 8 0 0 0 8-8v-21.637a8 8 0 0 0-8-7.999zm-77.3-87.927h41.299v87.927H426.7v-87.927zm-106.396-57.594h41.3v145.521h-41.3V284.602zm-106.396-60.14h41.299v205.661h-23.63a110.843 110.843 0 0 0 5.061-7.751c19.633-33.13 19.219-72.627-1.135-108.365-5.736-10.072-12.861-20.745-21.596-32.315v-57.23zM74.84 158.046c0-2.634 1.013-5.097 2.852-6.936 3.237-3.238 8.387-3.789 12.25-1.311 4.795 3.077 10.566 3.592 15.833 1.412 5.266-2.181 8.982-6.626 10.197-12.193.979-4.482 5.011-7.735 9.587-7.736 4.577 0 8.61 3.253 9.588 7.735 1.215 5.568 4.931 10.012 10.198 12.195 5.264 2.181 11.035 1.665 15.833-1.414 3.859-2.477 9.01-1.926 12.249 1.312 3.824 3.825 3.824 10.048 0 13.873l-26.032 26.032h-43.669l-26.033-26.032c-1.84-1.839-2.853-4.302-2.853-6.937zm12.06 48.969h77.317c5.145 0 9.331 4.186 9.331 9.331s-4.186 9.33-9.331 9.33H86.9c-5.145 0-9.331-4.186-9.331-9.331s4.186-9.33 9.331-9.33zm38.524 258.126c-40.903.663-78.156-18.823-97.18-50.926-16.866-28.459-16.414-61.235 1.273-92.29 12.646-22.203 32.619-47.761 62.724-80.25h66.635c30.105 32.488 50.078 58.046 62.724 80.25 17.687 31.055 18.139 63.831 1.273 92.29-18.699 31.554-54.99 50.945-95.082 50.943-.696 0-2.277-.019-2.367-.017zM496 451.76H211.485a116.746 116.746 0 0 0 6.285-5.637H496v5.637zm-332.912-77.364c.946 7.797-1.152 14.923-6.07 20.609-5.336 6.171-13.948 10.419-23.79 11.907v5.836a8 8 0 0 1-16 0v-5.962c-14.914-2.638-26.41-12.438-29.845-26.218a8 8 0 0 1 15.525-3.871c2.696 10.813 13.432 14.694 22.266 14.796l.235.002c.288 0 .572-.002.854-.009 7.843-.187 15.165-2.914 18.654-6.947 1.966-2.273 2.693-4.884 2.289-8.216-.667-5.488-3.904-12.193-23.187-15.358-26.925-4.423-33.207-18.335-33.736-29.227-.732-15.075 9.744-27.692 26.068-31.395.291-.066.583-.129.878-.188v-6.088a8 8 0 0 1 16 0v6.018c10.967 2.102 21.553 8.805 26.983 21.739a8 8 0 0 1-14.752 6.194c-3.782-9.008-11.9-12.677-19.764-12.709-1.446-.013-4.176.269-5.807.639-6.864 1.557-14.048 6.318-13.625 15.015.145 2.998.532 10.96 20.347 14.214 8.309 1.364 33.599 5.515 36.477 29.219z"></path>
</svg>
