<svg xmlns="http://www.w3.org/2000/svg" width="512" height="512" fill-rule="evenodd" clip-rule="evenodd" image-rendering="optimizeQuality" shape-rendering="geometricPrecision" text-rendering="geometricPrecision" viewBox="0 0 512 512" id="whatsapp">
  <path fill-rule="nonzero" d="M279.68 287.57c-3.27,4.03 -7.93,4.92 -12.66,3.03 -9.53,-3.81 -17.95,-8.9 -25.3,-15.21 -7.3,-6.29 -13.55,-13.78 -18.77,-22.45 -3.74,-5.67 -2.12,-10.11 1.9,-14.92 2.3,-2.68 4.9,-5.71 5.36,-8.41 1.17,-6.81 -7.21,-25.73 -15.35,-24.98 -1.44,0.13 -3.1,0.88 -4.98,2.41 -11.66,9.5 -11.35,23.79 -4.36,38.46 12.71,26.64 49.79,57.99 79.5,61.96 11.6,1.55 30.68,-5.63 27.88,-18.83 -1.34,-4.89 -18.97,-13.76 -24.45,-12.57 -2.19,0.45 -6.79,9.06 -8.77,11.51zm6.27 -23.04c11.41,-2.5 35.94,10.01 38.48,21.57 0,24.08 -17.37,36.18 -40.94,33.03 -33.75,-4.51 -74.18,-38.25 -88.63,-68.55 -9.32,-19.54 -9.22,-38.99 7.59,-52.68 3.81,-3.1 7.63,-4.65 11.35,-4.99 16.95,-1.58 30.46,24.58 28.05,38.68 -0.91,5.28 -5.12,11.34 -8.93,15.09 3.73,6.83 10.56,14.68 16.46,19.75 6.31,5.43 13.51,9.8 21.63,13.08 4.14,-5.81 7.11,-13.28 14.94,-14.98zm-29.95 100.97c-19.31,0 -38.44,-5.18 -55.12,-14.92 -1.21,-0.69 -2.94,-0.85 -3.94,-0.49l-46.41 12.71 17.14 -37.76c0.76,-1.67 0.59,-3.59 -0.49,-5.08 -13.49,-18.7 -20.68,-40.9 -20.68,-63.96 0,-60.39 49.12,-109.5 109.5,-109.5 60.38,0 109.5,49.11 109.5,109.49 0,60.39 -49.11,109.51 -109.5,109.51zm0 -11.82c53.86,0 97.69,-43.82 97.69,-97.68 0,-53.86 -43.82,-97.69 -97.69,-97.69 -53.86,0 -97.68,43.82 -97.68,97.69 0,20.64 6.33,40.33 18.41,57.08 3.53,4.88 4.18,11.32 1.69,16.81l-6.77 14.91 22.23 -6.1c4.31,-1.18 9.05,-0.58 12.92,1.68 17.35,8.67 29.33,13.3 49.2,13.3zm0.09 -217.28c-65.94,0 -119.69,53.65 -119.69,119.6 0,25.41 7.15,46.37 20.84,67.53l-20.39 44.91c-1.55,3.41 0.95,7.17 4.6,7.17 10.33,0 42.33,-11.41 56.14,-15.2 18.62,9.96 37.19,15.2 58.41,15.2 65.95,0 119.61,-53.67 119.61,-119.61 0,-65.93 -53.58,-119.6 -119.52,-119.6zm-0.06 -11.82c72.48,0 131.4,58.93 131.4,131.42 0,72.47 -58.96,131.42 -131.43,131.42 -20.76,0 -41.28,-4.95 -59.77,-14.41 -13.52,3.99 -43.64,14.41 -54.78,14.41 -12.03,0 -20.47,-12.57 -15.36,-23.82l17.77 -39.13c-12.67,-20.67 -19.28,-44.23 -19.28,-68.47 0,-72.47 58.98,-131.42 131.45,-131.42z"></path>
</svg>
